<svg xmlns="http://www.w3.org/2000/svg" xmlns:xlink="http://www.w3.org/1999/xlink" width="128" height="128" viewBox="0 0 128 128">
  <defs>
    <path id="monogram-a" d="M87.0806297,81.5313538 L87.0123528,81.4852272 C89.529083,83.1909541 91.7901585,85.3282913 93.6658727,87.7490723 C99.1102865,94.3965506 100.564233,101.712016 98.6610623,108.262154 C98.1805102,110.110415 97.4211404,111.928852 96.3490573,113.679405 C91.3409405,121.856614 80.3741591,127.742881 65.0168698,127.991793 L65.0163133,127.991495 C64.7834841,127.995576 64.5490843,127.998056 64.313676,127.999223 C64.2097728,128.001847 64.1027994,128.002312 63.9953767,128.002312 C52.7361473,128.001575 42.1554878,125.09275 32.96386,119.985848 C20.7426954,113.524974 9.05109205,102.450562 3.29566698,84.3325563 C1.89501689,80.143741 0.914389394,75.7637809 0.405104351,71.2411113 C0.404113488,71.233352 0.40316883,71.2262986 0.402224951,71.2192444 C0.136775996,68.8522063 -2.13162821e-14,66.4420802 -2.13162821e-14,64 C-2.13162821e-14,28.6527487 28.6550603,-2.84217094e-13 64,-2.84217094e-13 C99.3472513,-2.84217094e-13 128,28.6550603 128,64 C128,69.4684701 127.102944,77.3928833 124.5281,84.8363502 C123.056224,89.09131 121.027035,93.4568134 118.682478,97.0838653 C117.93548,98.2394784 116.958457,100.009821 116.196067,101.030912 C115.37372,102.132303 114.619681,103.257703 113.935305,104.064933 C113.193817,104.939527 112.535013,105.48482 111.984318,106.420388 C111.984318,102.207611 111.474526,93.4526941 103.520707,83.6397604 C95.5668885,73.8268266 90.3363019,72.5379575 81.2933613,66.8895471 C71.9982663,61.0595969 62.622264,55.2134653 53.2763129,49.4089431 C66.5589829,55.8745937 79.7954201,62.4072817 93.0387922,68.8683089 L107.223001,59.1062631 C107.410243,58.9444485 107.5605,58.7803222 107.5605,58.5422235 C107.521202,58.3018132 107.368634,58.0822076 107.155963,57.9620025 C80.2045799,48.7085169 55.8884635,40.8605071 28.9370801,31.6070216 C28.7174745,31.5284259 28.4701293,31.597775 28.3244961,31.7665246 C28.1372535,31.9329625 28.0910207,32.1941776 28.1696164,32.4068482 C35.5483638,52.9596186 47.2891714,73.1194105 54.6979701,93.716102 C54.7511378,93.8779166 54.8829011,94.0189265 55.0285343,94.0836524 C55.208842,94.1576248 55.4053312,94.1506899 55.585639,94.0258614 L79.9318067,77.8420863 C82.1106042,78.7751448 81.2933613,78.0623523 87.0077295,81.4875388 C87.0077295,81.4875388 87.0114992,81.5035215 87.0186824,81.5348944 L87.0123528,81.4852272 L87.0123528,81.4852272 C87.0123528,81.4852272 87.0509372,81.4916579 87.0806297,81.5313538 Z"/>
  </defs>
  <g fill="none" fill-rule="evenodd">
    <rect width="128" height="128"/>
    <use fill="#000" xlink:href="#monogram-a"/>
  </g>
</svg>
