<svg xmlns="http://www.w3.org/2000/svg" xmlns:xlink="http://www.w3.org/1999/xlink" width="424" height="128" viewBox="0 0 424 128">
  <defs>
    <path id="monogram-&amp;-wordmark---horizontal-a" d="M87.0806297,81.5313538 L87.0123528,81.4852272 C89.529083,83.1909541 91.7901585,85.3282913 93.6658727,87.7490723 C99.1102865,94.3965506 100.564233,101.712016 98.6610623,108.262154 C98.1805102,110.110415 97.4211404,111.928852 96.3490573,113.679405 C91.3409405,121.856614 80.3741591,127.742881 65.0168698,127.991793 L65.0163133,127.991495 C64.7834841,127.995576 64.5490843,127.998056 64.313676,127.999223 C64.2097728,128.001847 64.1027994,128.002312 63.9953767,128.002312 C52.7361473,128.001575 42.1554878,125.09275 32.96386,119.985848 C20.7426954,113.524974 9.05109205,102.450562 3.29566698,84.3325563 C1.89501689,80.143741 0.914389394,75.7637809 0.405104351,71.2411113 C0.404113488,71.233352 0.40316883,71.2262986 0.402224951,71.2192444 C0.136775996,68.8522063 -2.13162821e-14,66.4420802 -2.13162821e-14,64 C-2.13162821e-14,28.6527487 28.6550603,-2.84217094e-13 64,-2.84217094e-13 C99.3472513,-2.84217094e-13 128,28.6550603 128,64 C128,69.4684701 127.102944,77.3928833 124.5281,84.8363502 C123.056224,89.09131 121.027035,93.4568134 118.682478,97.0838653 C117.93548,98.2394784 116.958457,100.009821 116.196067,101.030912 C115.37372,102.132303 114.619681,103.257703 113.935305,104.064933 C113.193817,104.939527 112.535013,105.48482 111.984318,106.420388 C111.984318,102.207611 111.474526,93.4526941 103.520707,83.6397604 C95.5668885,73.8268266 90.3363019,72.5379575 81.2933613,66.8895471 C71.9982663,61.0595969 62.622264,55.2134653 53.2763129,49.4089431 C66.5589829,55.8745937 79.7954201,62.4072817 93.0387922,68.8683089 L107.223001,59.1062631 C107.410243,58.9444485 107.5605,58.7803222 107.5605,58.5422235 C107.521202,58.3018132 107.368634,58.0822076 107.155963,57.9620025 C80.2045799,48.7085169 55.8884635,40.8605071 28.9370801,31.6070216 C28.7174745,31.5284259 28.4701293,31.597775 28.3244961,31.7665246 C28.1372535,31.9329625 28.0910207,32.1941776 28.1696164,32.4068482 C35.5483638,52.9596186 47.2891714,73.1194105 54.6979701,93.716102 C54.7511378,93.8779166 54.8829011,94.0189265 55.0285343,94.0836524 C55.208842,94.1576248 55.4053312,94.1506899 55.585639,94.0258614 L79.9318067,77.8420863 C82.1106042,78.7751448 81.2933613,78.0623523 87.0077295,81.4875388 C87.0077295,81.4875388 87.0114992,81.5035215 87.0186824,81.5348944 L87.0123528,81.4852272 L87.0123528,81.4852272 C87.0123528,81.4852272 87.0509372,81.4916579 87.0806297,81.5313538 Z"/>
  </defs>
  <g fill="none" fill-rule="evenodd">
    <path fill="#000" d="M6.56497175,55.3672316 L12.9717514,40.180791 L38.9152542,40.180791 L45.3220339,55.3672316 L51.8870056,55.3672316 L29.6610169,3.00564972 L22.2259887,3.00564972 L0,55.3672316 L6.56497175,55.3672316 Z M36.6214689,34.7231638 L15.2655367,34.7231638 L25.9435028,9.17514124 L36.6214689,34.7231638 Z M72.4519774,55.3672316 L87.8757062,15.819209 L81.3898305,15.819209 L68.9717514,49.039548 L56.4745763,15.819209 L49.9887006,15.819209 L65.4915254,55.3672316 L72.4519774,55.3672316 Z M99.5819209,9.17514124 L99.5819209,1.42372881 L93.1751412,1.42372881 L93.1751412,9.17514124 L99.5819209,9.17514124 Z M99.3446328,55.3672316 L99.3446328,15.819209 L93.4124294,15.819209 L93.4124294,55.3672316 L99.3446328,55.3672316 Z M126.316384,56 C132.591337,56 137.310734,53.6798493 140.474576,49.039548 L140.474576,49.039548 L140.474576,55.3672316 L146.40678,55.3672316 L146.40678,15.819209 L140.474576,15.819209 L140.474576,22.2259887 C137.258004,17.5329567 132.670433,15.1864407 126.711864,15.1864407 C120.753296,15.1864407 115.981168,17.1638418 112.39548,21.1186441 C108.915254,25.0207156 107.175141,29.8455744 107.175141,35.5932203 C107.175141,41.3408663 108.915254,46.165725 112.39548,50.0677966 C115.981168,54.0225989 120.621469,56 126.316384,56 Z M127.107345,50.6214689 C122.888889,50.6214689 119.461394,49.1450094 116.824859,46.1920904 C114.346516,43.3973635 113.107345,39.8644068 113.107345,35.5932203 C113.107345,31.3220339 114.346516,27.7890772 116.824859,24.9943503 C119.461394,22.0414313 122.888889,20.5649718 127.107345,20.5649718 C131.378531,20.5649718 134.753296,22.0414313 137.231638,24.9943503 C139.60452,27.7890772 140.79096,31.3220339 140.79096,35.5932203 C140.79096,39.8644068 139.60452,43.3973635 137.231638,46.1920904 C134.753296,49.1450094 131.378531,50.6214689 127.107345,50.6214689 Z M198.858757,55.3672316 L198.858757,49.6723164 L170.700565,49.6723164 C170.858757,48.1431262 171.6629,46.6271186 173.112994,45.1242938 C174.563089,43.6214689 176.34275,42.0922787 178.451977,40.5367232 C180.561205,38.9811676 182.815443,37.386064 185.214689,35.7514124 C187.613936,34.1167608 189.841808,32.3766478 191.898305,30.5310734 C193.954802,28.6854991 195.655367,26.7080979 197,24.5988701 C198.344633,22.4896422 199.016949,20.3013183 199.016949,18.0338983 C199.016949,13.393597 197.461394,9.64971751 194.350282,6.80225989 C191.080979,3.84934087 186.677966,2.37288136 181.141243,2.37288136 C176.290019,2.37288136 172.150659,3.74387947 168.723164,6.48587571 C165.295669,9.22787194 163.370998,12.8135593 162.949153,17.2429379 L162.949153,17.2429379 L168.881356,17.2429379 C169.303202,14.2900188 170.608286,12.0357815 172.79661,10.480226 C174.984934,8.92467043 177.898305,8.14689266 181.536723,8.14689266 C185.175141,8.14689266 188.009416,9.01694915 190.039548,10.7570621 C192.06968,12.4971751 193.084746,14.8964218 193.084746,17.9548023 C193.084746,19.9585687 192.359699,21.8305085 190.909605,23.5706215 C189.45951,25.3107345 187.640301,27.0244821 185.451977,28.7118644 C183.263653,30.3992467 180.903955,32.0734463 178.372881,33.7344633 C175.841808,35.3954802 173.482109,37.1619586 171.293785,39.0338983 C169.105461,40.905838 167.286252,42.9096045 165.836158,45.0451977 C164.386064,47.180791 163.661017,49.5404896 163.661017,52.1242938 L163.661017,52.1242938 L163.661017,55.3672316 L198.858757,55.3672316 Z M227.847458,56 C233.832392,56 238.591337,54.0225989 242.124294,50.0677966 C245.65725,46.165725 247.423729,41.3408663 247.423729,35.5932203 C247.423729,29.8455744 245.65725,25.0207156 242.124294,21.1186441 C238.591337,17.1638418 233.977401,15.1864407 228.282486,15.1864407 C222.060264,15.1864407 217.340866,17.5329567 214.124294,22.2259887 L214.124294,22.2259887 L214.124294,0 L208.19209,0 L208.19209,55.3672316 L214.124294,55.3672316 L214.124294,49.039548 C217.288136,53.6798493 221.862524,56 227.847458,56 Z M227.491525,50.6214689 C223.220339,50.6214689 219.845574,49.1450094 217.367232,46.1920904 C214.99435,43.3973635 213.80791,39.8644068 213.80791,35.5932203 C213.80791,31.3220339 214.99435,27.7890772 217.367232,24.9943503 C219.845574,22.0414313 223.220339,20.5649718 227.491525,20.5649718 C231.709981,20.5649718 235.137476,22.0414313 237.774011,24.9943503 C240.252354,27.7890772 241.491525,31.3220339 241.491525,35.5932203 C241.491525,39.8644068 240.252354,43.3973635 237.774011,46.1920904 C235.137476,49.1450094 231.709981,50.6214689 227.491525,50.6214689 Z" transform="translate(176 36)"/>
    <rect width="128" height="128"/>
    <use fill="#000" xlink:href="#monogram-&amp;-wordmark---horizontal-a"/>
  </g>
</svg>
